0.06m3min_grf.mot
version=1
nRows=27
nColumns 19
inDegrees=yes
endheader
time	1_ground_force_vx	1_ground_force_vy	1_ground_force_vz	1_ground_force_px	1_ground_force_py	1_ground_force_pz	1_ground_torque_x	1_ground_torque_y	1_ground_torque_z	2_ground_force_vx	2_ground_force_vy	2_ground_force_vz	2_ground_force_px	2_ground_force_py	2_ground_force_pz	2_ground_torque_x	2_ground_torque_y	2_ground_torque_z
            2.502500	          -33.972564	          617.948265	          -82.285188	           -0.264354	            0.005887	           -0.328354	           -0.095668	            1.740165	           -0.231718	          -22.598523	          594.727998	           52.954801	           -0.273576	            0.005365	           -0.660932	            0.093057	           -2.448987	           -0.218059
            2.503000	          -34.064411	          618.849484	          -82.281096	           -0.264212	            0.005887	           -0.328331	           -0.091232	            1.657416	           -0.220367	          -22.785985	          594.727823	           52.814096	           -0.273431	            0.005365	           -0.660936	            0.090639	           -2.365723	           -0.210085
            2.503500	          -33.788914	          617.046745	          -82.243641	           -0.264277	            0.005887	           -0.328361	           -0.092036	            1.680749	           -0.224020	          -23.060335	          592.884565	           53.042286	           -0.273508	            0.005364	           -0.660657	            0.087856	           -2.258798	           -0.202083
            2.504000	          -33.788815	          616.505978	          -82.245960	           -0.264459	            0.005888	           -0.328516	           -0.091663	            1.672471	           -0.223119	          -23.055662	          591.595351	           53.084615	           -0.273348	            0.005364	           -0.660600	            0.086270	           -2.213627	           -0.198632
            2.504500	          -33.512792	          615.603296	          -81.929527	           -0.264151	            0.005888	           -0.328417	           -0.090866	            1.669142	           -0.222143	          -23.054998	          591.411150	           53.083957	           -0.273206	            0.005366	           -0.660770	            0.085046	           -2.181614	           -0.195818
            2.505000	          -33.375199	          615.242730	          -81.931415	           -0.264144	            0.005888	           -0.328546	           -0.086820	            1.600443	           -0.213130	          -22.816615	          590.305980	           53.408412	           -0.273247	            0.005365	           -0.660765	            0.084660	           -2.190297	           -0.198169
            2.505500	          -33.191660	          613.079971	          -82.032850	           -0.264082	            0.005889	           -0.328660	           -0.087542	            1.616988	           -0.216360	          -22.720962	          589.754170	           53.312545	           -0.273111	            0.005367	           -0.660993	            0.080039	           -2.077515	           -0.187803
            2.506000	          -32.962266	          613.980784	          -81.891982	           -0.264089	            0.005888	           -0.328416	           -0.085464	            1.591921	           -0.212328	          -22.484015	          589.018118	           53.403673	           -0.273002	            0.005367	           -0.660970	            0.078959	           -2.068510	           -0.187543
            2.506500	          -32.915574	          613.078255	          -81.620833	           -0.263699	            0.005888	           -0.328434	           -0.078928	            1.470091	           -0.195717	          -22.240959	          586.623735	           53.770457	           -0.273167	            0.005366	           -0.660780	            0.077849	           -2.053337	           -0.188211
            2.507000	          -32.731678	          611.455597	          -81.536525	           -0.263920	            0.005888	           -0.328469	           -0.078720	            1.470553	           -0.196096	          -22.193426	          586.439535	           53.816708	           -0.272901	            0.005367	           -0.660794	            0.075073	           -1.983733	           -0.182044
            2.507500	          -32.457259	          611.817104	          -81.764953	           -0.263676	            0.005888	           -0.328499	           -0.075863	            1.430009	           -0.191110	          -22.189397	          585.334356	           53.906622	           -0.272927	            0.005367	           -0.660954	            0.071578	           -1.888164	           -0.173891
            2.508000	          -32.272551	          610.733640	          -81.311479	           -0.263492	            0.005889	           -0.328682	           -0.070990	            1.343435	           -0.178861	          -22.138496	          584.229057	           54.043444	           -0.272947	            0.005368	           -0.661049	            0.069320	           -1.829329	           -0.169220
            2.508500	          -32.363970	          609.291497	          -81.317435	           -0.263770	            0.005888	           -0.328554	           -0.074916	            1.410395	           -0.188234	          -21.621758	          583.862134	           54.182695	           -0.272686	            0.005369	           -0.661234	            0.066680	           -1.800596	           -0.167096
            2.509000	          -31.767866	          609.111119	          -81.273835	           -0.263626	            0.005888	           -0.328597	           -0.070732	            1.356203	           -0.180958	          -21.431015	          582.941879	           54.226258	           -0.272749	            0.005369	           -0.661349	            0.066266	           -1.802498	           -0.167671
            2.509500	          -31.629312	          607.847941	          -80.958592	           -0.263589	            0.005889	           -0.328695	           -0.070265	            1.350340	           -0.179850	          -21.236181	          580.915942	           54.500519	           -0.272711	            0.005369	           -0.661111	            0.061723	           -1.688439	           -0.158406
            2.510000	          -31.308245	          606.946644	          -80.963253	           -0.263489	            0.005889	           -0.328648	           -0.069091	            1.339410	           -0.178670	          -21.141673	          580.731029	           54.828319	           -0.272760	            0.005370	           -0.661512	            0.060161	           -1.652523	           -0.156019
            2.510500	          -30.895348	          605.864872	          -80.923063	           -0.263562	            0.005889	           -0.328645	           -0.064438	            1.263650	           -0.168781	          -20.619635	          578.891026	           54.915385	           -0.272571	            0.005369	           -0.660970	            0.056731	           -1.592717	           -0.151090
            2.511000	          -30.481406	          604.060586	          -80.519117	           -0.263530	            0.005890	           -0.328898	           -0.064144	            1.271158	           -0.169441	          -20.661793	          577.601477	           55.004662	           -0.272411	            0.005370	           -0.661271	            0.054351	           -1.519385	           -0.144690
            2.511500	          -30.344415	          603.881300	          -80.749507	           -0.263374	            0.005889	           -0.328655	           -0.063519	            1.264085	           -0.169030	          -20.378076	          576.866264	           54.908058	           -0.272607	            0.005370	           -0.661350	            0.050660	           -1.434098	           -0.136502
            2.512000	          -30.068052	          601.716592	          -80.392618	           -0.263491	            0.005889	           -0.328832	           -0.063851	            1.277770	           -0.170717	          -20.372636	          575.392012	           55.184370	           -0.272646	            0.005370	           -0.661400	            0.049947	           -1.410683	           -0.135295
            2.512500	          -29.976153	          601.175647	          -80.349312	           -0.263363	            0.005890	           -0.328861	           -0.062025	            1.243919	           -0.166254	          -19.849830	          573.367092	           55.505420	           -0.272435	            0.005370	           -0.661288	            0.046676	           -1.348252	           -0.130519
            2.513000	          -29.379165	          599.912556	          -80.035207	           -0.263361	            0.005890	           -0.328958	           -0.059284	            1.210563	           -0.161503	          -19.610869	          572.078390	           55.641505	           -0.272533	            0.005370	           -0.661363	            0.044457	           -1.296890	           -0.126138
            2.513500	          -29.195515	          599.011036	          -79.993675	           -0.263058	            0.005889	           -0.328750	           -0.056866	            1.166739	           -0.155810	          -19.232041	          570.974564	           55.731260	           -0.272589	            0.005370	           -0.661495	            0.041387	           -1.228731	           -0.119933
            2.514000	          -28.690348	          598.468991	          -79.676250	           -0.263126	            0.005889	           -0.328787	           -0.053044	            1.106472	           -0.147308	          -18.995049	          570.238178	           55.916245	           -0.272573	            0.005371	           -0.661767	            0.041077	           -1.233140	           -0.120919
            2.514500	          -28.368529	          595.944486	          -79.504444	           -0.263106	            0.005890	           -0.329054	           -0.052219	            1.096987	           -0.146348	          -18.616782	          569.317595	           56.241296	           -0.272512	            0.005372	           -0.661889	            0.038804	           -1.186659	           -0.117227
            2.515000	          -27.955519	          594.862639	          -79.418386	           -0.263080	            0.005889	           -0.328808	           -0.055256	            1.175788	           -0.156976	          -18.751209	          567.658589	           56.563939	           -0.272352	            0.005373	           -0.661923	            0.034822	           -1.054186	           -0.105044
            2.515500	          -27.495738	          594.319677	          -78.917440	           -0.262955	            0.005889	           -0.328710	           -0.053208	            1.150084	           -0.152715	          -18.276002	          565.818249	           56.697954	           -0.272353	            0.005372	           -0.661765	            0.033088	           -1.024381	           -0.102648
